<svg width="54" height="53" viewBox="0 0 54 53" fill="none" xmlns="http://www.w3.org/2000/svg">
<rect width="54" height="53" rx="15" fill="#4686FF" fill-opacity="0.2"/>
<path d="M9.66425 30.9388H7.17987C6.96024 30.9388 6.7496 30.8515 6.5943 30.6962C6.43899 30.5409 6.35175 30.3303 6.35175 30.1107V22.8894C6.35175 22.6698 6.43899 22.4591 6.5943 22.3038C6.7496 22.1485 6.96024 22.0613 7.17987 22.0613H9.66425C9.88388 22.0613 10.0945 22.1485 10.2498 22.3038C10.4051 22.4591 10.4924 22.6698 10.4924 22.8894V30.1107C10.4924 30.3303 10.4051 30.5409 10.2498 30.6962C10.0945 30.8515 9.88388 30.9388 9.66425 30.9388ZM8.008 29.2825H8.83612V23.7175H8.008V29.2825Z" fill="#4380F4"/>
<path d="M12.9767 32.7855H9.66425C9.44461 32.7855 9.23398 32.6983 9.07867 32.543C8.92337 32.3877 8.83612 32.177 8.83612 31.9574V21.0427C8.83612 20.8231 8.92337 20.6125 9.07867 20.4572C9.23398 20.3018 9.44461 20.2146 9.66425 20.2146H12.9767C13.0855 20.2146 13.1932 20.236 13.2937 20.2776C13.3941 20.3193 13.4854 20.3803 13.5623 20.4572C13.6392 20.534 13.7002 20.6253 13.7418 20.7258C13.7835 20.8263 13.8049 20.934 13.8049 21.0427V31.9574C13.8049 32.0662 13.7835 32.1738 13.7418 32.2743C13.7002 32.3748 13.6392 32.4661 13.5623 32.543C13.4854 32.6199 13.3941 32.6809 13.2937 32.7225C13.1932 32.7641 13.0855 32.7855 12.9767 32.7855ZM10.4924 31.1293H12.1486V21.8708H10.4924V31.1293Z" fill="#4380F4"/>
<path d="M18.4838 34.7812H12.9767C12.7571 34.7812 12.5465 34.694 12.3912 34.5387C12.2359 34.3834 12.1486 34.1728 12.1486 33.9531V19.0469C12.1486 18.8272 12.2359 18.6166 12.3912 18.4613C12.5465 18.306 12.7571 18.2188 12.9767 18.2188H18.4838C18.7034 18.2188 18.914 18.306 19.0693 18.4613C19.2247 18.6166 19.3119 18.8272 19.3119 19.0469V33.9531C19.3119 34.1728 19.2247 34.3834 19.0693 34.5387C18.914 34.694 18.7034 34.7812 18.4838 34.7812ZM13.8049 33.125H17.6557V19.875H13.8049V33.125Z" fill="#4380F4"/>
<path d="M45.8201 30.9388H43.3358C43.1161 30.9388 42.9055 30.8515 42.7502 30.6962C42.5949 30.5409 42.5076 30.3303 42.5076 30.1107V22.8894C42.5076 22.6698 42.5949 22.4591 42.7502 22.3038C42.9055 22.1485 43.1161 22.0613 43.3358 22.0613H45.8201C46.0398 22.0613 46.2504 22.1485 46.4057 22.3038C46.561 22.4591 46.6483 22.6698 46.6483 22.8894V30.1107C46.6483 30.3303 46.561 30.5409 46.4057 30.6962C46.2504 30.8515 46.0398 30.9388 45.8201 30.9388ZM44.1639 29.2825H44.992V23.7175H44.1639V29.2825Z" fill="#4380F4"/>
<path d="M43.3275 32.7855H40.015C39.7954 32.7855 39.5847 32.6983 39.4294 32.543C39.2741 32.3877 39.1869 32.177 39.1869 31.9574V21.0427C39.1869 20.8231 39.2741 20.6125 39.4294 20.4572C39.5847 20.3018 39.7954 20.2146 40.015 20.2146H43.3275C43.5471 20.2146 43.7578 20.3018 43.9131 20.4572C44.0684 20.6125 44.1556 20.8231 44.1556 21.0427V31.9574C44.1556 32.177 44.0684 32.3877 43.9131 32.543C43.7578 32.6983 43.5471 32.7855 43.3275 32.7855ZM40.8431 31.1293H42.4994V21.8708H40.8431V31.1293Z" fill="#4380F4"/>
<path d="M40.015 34.7812H34.508C34.2884 34.7812 34.0777 34.694 33.9224 34.5387C33.7671 34.3834 33.6799 34.1728 33.6799 33.9531V19.0469C33.6799 18.8272 33.7671 18.6166 33.9224 18.4613C34.0777 18.306 34.2884 18.2188 34.508 18.2188H40.015C40.2347 18.2188 40.4453 18.306 40.6006 18.4613C40.7559 18.6166 40.8432 18.8272 40.8432 19.0469V33.9531C40.8432 34.1728 40.7559 34.3834 40.6006 34.5387C40.4453 34.694 40.2347 34.7812 40.015 34.7812ZM35.3361 33.125H39.1869V19.875H35.3361V33.125Z" fill="#4380F4"/>
<path d="M34.508 28.9844H18.4838C18.2641 28.9844 18.0535 28.8971 17.8982 28.7418C17.7429 28.5865 17.6556 28.3759 17.6556 28.1562V24.8438C17.6556 24.6241 17.7429 24.4135 17.8982 24.2582C18.0535 24.1029 18.2641 24.0156 18.4838 24.0156H34.508C34.7276 24.0156 34.9383 24.1029 35.0936 24.2582C35.2489 24.4135 35.3361 24.6241 35.3361 24.8438V28.1562C35.3361 28.3759 35.2489 28.5865 35.0936 28.7418C34.9383 28.8971 34.7276 28.9844 34.508 28.9844ZM19.3119 27.3281H33.6799V25.6719H19.3119V27.3281Z" fill="#4380F4"/>
</svg>
