<svg width="54" height="53" viewBox="0 0 54 53" fill="none" xmlns="http://www.w3.org/2000/svg">
<rect width="54" height="53" rx="15" fill="#4686FF" fill-opacity="0.2"/>
<path d="M39.2679 40.9036C38.9336 40.9018 38.6041 40.8249 38.3036 40.6786L32.1 37.5714H20.5714C18.2981 37.5714 16.118 36.6684 14.5105 35.0609C12.9031 33.4535 12 31.2733 12 29V22.5714C12 20.2981 12.9031 18.118 14.5105 16.5105C16.118 14.9031 18.2981 14 20.5714 14H33.4286C35.7019 14 37.882 14.9031 39.4895 16.5105C41.0969 18.118 42 20.2981 42 22.5714V29C41.9993 30.8779 41.382 32.7035 40.2429 34.1964L41.3143 38.1929C41.4013 38.5093 41.4144 38.8415 41.3527 39.1638C41.291 39.4862 41.156 39.79 40.9583 40.0519C40.7605 40.3138 40.5053 40.5269 40.2122 40.6745C39.9191 40.8222 39.596 40.9005 39.2679 40.9036V40.9036ZM20.5714 16.1429C18.8665 16.1429 17.2313 16.8202 16.0257 18.0257C14.8202 19.2313 14.1429 20.8665 14.1429 22.5714V29C14.1429 30.705 14.8202 32.3401 16.0257 33.5457C17.2313 34.7513 18.8665 35.4286 20.5714 35.4286H32.3571C32.5249 35.4296 32.69 35.4699 32.8393 35.5464L39.2679 38.7607L38.025 34.2179C37.9799 34.0469 37.9778 33.8674 38.0189 33.6954C38.0601 33.5234 38.1431 33.3642 38.2607 33.2321C39.288 32.0614 39.8553 30.5575 39.8571 29V22.5714C39.8571 20.8665 39.1798 19.2313 37.9743 18.0257C36.7687 16.8202 35.1335 16.1429 33.4286 16.1429H20.5714Z" fill="#4686FF"/>
<path d="M35.5714 30.1895H18.4286C18.1444 30.1895 17.8719 30.0766 17.671 29.8757C17.47 29.6747 17.3571 29.4022 17.3571 29.1181C17.3571 28.8339 17.47 28.5614 17.671 28.3604C17.8719 28.1595 18.1444 28.0466 18.4286 28.0466H35.5714C35.8556 28.0466 36.1281 28.1595 36.329 28.3604C36.53 28.5614 36.6429 28.8339 36.6429 29.1181C36.6429 29.4022 36.53 29.6747 36.329 29.8757C36.1281 30.0766 35.8556 30.1895 35.5714 30.1895Z" fill="#4686FF"/>
<path d="M35.5714 23.7608H18.4286C18.1444 23.7608 17.8719 23.6479 17.671 23.447C17.47 23.246 17.3571 22.9735 17.3571 22.6893C17.3571 22.4052 17.47 22.1327 17.671 21.9317C17.8719 21.7308 18.1444 21.6179 18.4286 21.6179H35.5714C35.8556 21.6179 36.1281 21.7308 36.329 21.9317C36.53 22.1327 36.6429 22.4052 36.6429 22.6893C36.6429 22.9735 36.53 23.246 36.329 23.447C36.1281 23.6479 35.8556 23.7608 35.5714 23.7608Z" fill="#4686FF"/>
</svg>
