<svg width="53" height="53" viewBox="0 0 53 53" fill="none" xmlns="http://www.w3.org/2000/svg">
<rect width="53" height="53" rx="15" fill="#4686FF" fill-opacity="0.2"/>
<path d="M26.0669 23.0298C26.5619 23.0298 27.0569 22.6619 27.0569 22.0487C27.0569 21.0676 28.0468 20.0866 29.1605 18.9829C30.398 17.7565 31.8829 16.4076 31.8829 14.4454C31.8829 13.0965 31.1405 11.7475 29.6555 10.2759C29.2843 9.90803 28.6656 9.90803 28.2943 10.2759C27.9231 10.6438 27.9231 11.257 28.2943 11.6249C29.408 12.7286 29.903 13.7096 29.903 14.4454C29.903 15.5491 28.913 16.5302 27.7993 17.6339C26.5619 18.8602 25.2007 20.2092 25.2007 22.0487C25.2007 22.5392 25.5719 23.0298 26.0669 23.0298ZM16.786 28.4256C14.6823 28.4256 12.9498 30.1425 12.9498 32.2272C12.9498 34.312 14.6823 36.0289 16.786 36.0289C18.8896 36.0289 20.6221 34.312 20.6221 32.2272C20.6221 30.1425 19.0134 28.4256 16.786 28.4256ZM16.786 34.312C15.6722 34.312 14.806 33.4536 14.806 32.3499C14.806 31.2462 15.6722 30.3877 16.786 30.3877C17.8997 30.3877 18.7659 31.2462 18.7659 32.3499C18.7659 33.4536 17.8997 34.312 16.786 34.312ZM39.9264 30.1425H38.689V28.9161C38.689 28.4256 38.3177 27.9351 37.699 27.9351H34.9766C34.4816 27.9351 33.9866 28.303 33.9866 28.9161V30.1425H32.7492C32.2542 30.1425 31.7592 30.5104 31.7592 31.1235V33.8215C31.7592 34.312 32.1304 34.8025 32.7492 34.8025H33.9866V36.0289C33.9866 36.5194 34.3579 37.0099 34.9766 37.0099H37.699C38.194 37.0099 38.689 36.642 38.689 36.0289V34.8025H39.9264C40.4214 34.8025 40.9164 34.4346 40.9164 33.8215V31.1235C40.7926 30.5104 40.4214 30.1425 39.9264 30.1425ZM38.9365 32.8404H37.699C37.204 32.8404 36.709 33.2083 36.709 33.8215V35.0478H35.8428V33.8215C35.8428 33.3309 35.4716 32.8404 34.8528 32.8404H33.6154V31.982H34.8528C35.3478 31.982 35.8428 31.6141 35.8428 31.0009V29.7746H36.709V31.0009C36.709 31.4914 37.0803 31.982 37.699 31.982H38.9365V32.8404ZM36.9565 23.8882H15.9197C12.7023 23.8882 8 27.1993 8 32.963V36.0289C8 39.8305 9.6087 44 14.0635 44C18.8896 44 22.9732 38.3589 24.087 36.642H28.913C30.0268 38.3589 34.1104 44 38.9365 44C43.3913 44 45 39.8305 45 36.0289V32.963C44.8763 27.0766 40.1739 23.8882 36.9565 23.8882ZM43.0201 36.1515C43.0201 37.991 42.6488 42.2831 38.8127 42.2831C34.2341 42.2831 30.1505 35.5383 30.1505 35.4157C30.0268 35.1704 29.6555 34.9252 29.408 34.9252H23.592C23.2207 34.9252 22.9732 35.0478 22.8495 35.4157C22.8495 35.5383 18.6421 42.2831 14.1873 42.2831C10.4749 42.2831 9.97993 37.991 9.97993 36.1515V33.0857C9.97993 28.1803 13.8161 25.8503 16.0435 25.8503H37.0803C39.1839 25.8503 43.1438 28.303 43.1438 33.0857V36.1515H43.0201Z" fill="#4686FF"/>
</svg>
