<svg width="54" height="53" viewBox="0 0 54 53" fill="none" xmlns="http://www.w3.org/2000/svg">
<rect width="54" height="53" rx="15" fill="#4686FF" fill-opacity="0.2"/>
<path d="M36.5693 21.6359L36.5693 21.6358L31.2824 14.9873C31.1248 14.7636 30.8645 14.6171 30.5697 14.6171H17.2939V12.6489H38.3555V33.9354H36.7601L36.7586 22.179C36.7586 21.9885 36.6969 21.7965 36.5693 21.6359ZM31.7514 42.1C32.033 42.1 32.2514 41.9916 32.3981 41.8238C32.5431 41.658 32.6133 41.44 32.6133 41.2256C32.6133 41.0111 32.5431 40.7931 32.3981 40.6273C32.2514 40.4595 32.033 40.3511 31.7514 40.3511H15.4602C15.0115 40.3511 14.6445 39.9836 14.6445 39.5325V17.1842C14.6445 16.7358 15.0137 16.3659 15.4602 16.3659H30.1515L35.0156 22.4825V37.7544C35.0156 38.0366 35.1236 38.2554 35.2909 38.4026C35.4563 38.548 35.6737 38.6185 35.8878 38.6185C36.1019 38.6185 36.3194 38.548 36.4848 38.4026C36.6521 38.2554 36.7601 38.0366 36.7601 37.7544V35.6843H39.228C39.7099 35.6843 40.1 35.2922 40.1 34.8097V11.7746C40.1 11.2921 39.7099 10.9 39.228 10.9H16.4215C15.9395 10.9 15.5494 11.2921 15.5494 11.7746V14.6171H15.4602C14.0498 14.6171 12.9 15.7706 12.9 17.1842V39.5325C12.9 40.9438 14.0517 42.1 15.4602 42.1H31.7514ZM17.5668 30.3943C17.2851 30.3943 17.0668 30.5027 16.9201 30.6705C16.7751 30.8363 16.7049 31.0542 16.7049 31.2687C16.7049 31.4832 16.7751 31.7012 16.9201 31.867C17.0668 32.0347 17.2851 32.1432 17.5668 32.1432H29.6649C29.9465 32.1432 30.1647 32.0347 30.3114 31.867C30.4564 31.7012 30.5265 31.4832 30.5265 31.2687C30.5265 31.0543 30.4564 30.8363 30.3114 30.6705C30.1647 30.5027 29.9465 30.3943 29.6649 30.3943H17.5668ZM17.6487 36.4604C17.3671 36.4604 17.1487 36.5688 17.002 36.7366C16.857 36.9024 16.7868 37.1203 16.7868 37.3348C16.7868 37.5493 16.857 37.7673 17.002 37.9331C17.1487 38.1008 17.3671 38.2092 17.6487 38.2092H29.7464C30.0281 38.2092 30.2464 38.1008 30.3932 37.9331C30.5382 37.7673 30.6084 37.5493 30.6084 37.3348C30.6084 37.1203 30.5382 36.9024 30.3932 36.7366C30.2464 36.5688 30.0281 36.4604 29.7464 36.4604H17.6487ZM17.6487 33.4271C17.3671 33.4271 17.1487 33.5356 17.002 33.7033C16.857 33.8691 16.7868 34.0871 16.7868 34.3016C16.7868 34.5161 16.857 34.734 17.002 34.8998C17.1487 35.0676 17.3671 35.176 17.6487 35.176H29.7464C30.0281 35.176 30.2464 35.0676 30.3932 34.8998C30.5382 34.734 30.6084 34.5161 30.6084 34.3016C30.6084 34.0871 30.5382 33.8691 30.3932 33.7033C30.2464 33.5356 30.0281 33.4271 29.7464 33.4271H17.6487ZM23.861 18.5075H20.2641C18.4786 18.5075 17.0217 19.9693 17.0217 21.7592V25.3664C17.0217 27.1563 18.4786 28.6182 20.2641 28.6182H23.861C25.6465 28.6182 27.1039 27.1563 27.1039 25.3664V21.7592C27.1039 19.9693 25.6465 18.5075 23.861 18.5075ZM20.2641 20.2567H23.861C24.6827 20.2567 25.3594 20.9346 25.3594 21.7592V25.3664C25.3594 26.1911 24.6831 26.8693 23.861 26.8693H20.2641C19.4425 26.8693 18.7662 26.1911 18.7662 25.3664V21.7592C18.7662 20.9345 19.4425 20.2567 20.2641 20.2567Z" fill="#4686FF" stroke="#4686FE" stroke-width="0.2"/>
</svg>
