<svg width="54" height="53" viewBox="0 0 54 53" fill="none" xmlns="http://www.w3.org/2000/svg">
<rect width="54" height="53" rx="15" fill="#4686FF" fill-opacity="0.2"/>
<path d="M36.7964 39.8846H16.2036C14.1 39.8846 12.3286 38.1 12.3286 35.9808V22.3731C12.3286 20.2539 14.1 18.4692 16.2036 18.4692H36.7964C38.9 18.4692 40.6714 20.2539 40.6714 22.3731V35.9808C40.6714 38.1 38.9 39.8846 36.7964 39.8846Z" stroke="#4686FF" stroke-width="2" stroke-miterlimit="10"/>
<path d="M33.5857 18.4693H19.4143V15.3462C19.4143 14.1193 20.4107 13.1155 21.6286 13.1155H31.3714C32.5893 13.1155 33.5857 14.1193 33.5857 15.3462V18.4693Z" stroke="#4686FF" stroke-width="2" stroke-miterlimit="10"/>
<path d="M13.2143 27.3923H40.6714" stroke="#4686FF" stroke-width="2" stroke-miterlimit="10"/>
<path d="M18.5286 25.6077V30.0692" stroke="#4686FF" stroke-width="2" stroke-miterlimit="10" stroke-linecap="round"/>
<path d="M34.4714 25.6077V30.0692" stroke="#4686FF" stroke-width="2" stroke-miterlimit="10" stroke-linecap="round"/>
</svg>
