<svg width="39" height="39" viewBox="0 0 39 39" fill="none" xmlns="http://www.w3.org/2000/svg">
<circle cx="19.5" cy="19.5" r="19.5" fill="white"/>
<path d="M26.9246 22.5754C25.781 21.4318 24.4198 20.5852 22.9346 20.0727C24.5253 18.9771 25.5703 17.1436 25.5703 15.0703C25.5703 11.7232 22.8472 9 19.5 9C16.1528 9 13.4297 11.7232 13.4297 15.0703C13.4297 17.1436 14.4747 18.9771 16.0654 20.0727C14.5803 20.5852 13.219 21.4318 12.0754 22.5754C10.0922 24.5586 9 27.1954 9 30H10.6406C10.6406 25.1149 14.6149 21.1406 19.5 21.1406C24.3851 21.1406 28.3594 25.1149 28.3594 30H30C30 27.1954 28.9078 24.5586 26.9246 22.5754ZM19.5 19.5C17.0575 19.5 15.0703 17.5129 15.0703 15.0703C15.0703 12.6278 17.0575 10.6406 19.5 10.6406C21.9425 10.6406 23.9297 12.6278 23.9297 15.0703C23.9297 17.5129 21.9425 19.5 19.5 19.5Z" fill="#4686FF"/>
</svg>
