<svg width="39" height="39" viewBox="0 0 39 39" fill="none" xmlns="http://www.w3.org/2000/svg">
<circle cx="19.5" cy="19.5" r="19.5" fill="white"/>
<path d="M27.0103 11.7383H22.7025C22.5504 10.2032 21.2518 9 19.6772 9C18.1027 9 16.8041 10.2032 16.652 11.7383H12.3441C11.0516 11.7383 10 12.7899 10 14.0825C10 15.336 10.9891 16.3628 12.2278 16.4237V28.169C12.2278 29.73 13.4977 31 15.0588 31H24.2958C25.8568 31 27.1267 29.73 27.1267 28.169V16.4237C28.3655 16.3628 29.3545 15.336 29.3545 14.0825C29.3545 12.7899 28.3029 11.7383 27.0103 11.7383ZM19.6772 10.4395C20.4566 10.4395 21.1074 10.9996 21.2491 11.7383H18.1053C18.247 10.9996 18.8978 10.4395 19.6772 10.4395ZM25.6872 28.1691C25.6872 28.9364 25.063 29.5606 24.2957 29.5606H15.0587C14.2914 29.5606 13.6672 28.9364 13.6672 28.1691V16.4266C14.2547 16.4266 25.2277 16.4266 25.6872 16.4266V28.1691V28.1691ZM27.0103 14.9872C26.8603 14.9872 12.4717 14.9872 12.3441 14.9872C11.8453 14.9872 11.4395 14.5813 11.4395 14.0825C11.4395 13.5837 11.8453 13.1778 12.3441 13.1778H27.0103C27.5092 13.1778 27.915 13.5837 27.915 14.0825C27.915 14.5813 27.5092 14.9872 27.0103 14.9872Z" fill="#4686FF"/>
<path d="M19.6773 27.8246C20.0747 27.8246 20.397 27.5023 20.397 27.1048V18.77C20.397 18.3725 20.0748 18.0503 19.6773 18.0503C19.2798 18.0503 18.9575 18.3725 18.9575 18.77V27.1048C18.9575 27.5023 19.2798 27.8246 19.6773 27.8246Z" fill="#4686FF"/>
<path d="M23.3921 27.8246C23.7896 27.8246 24.1118 27.5023 24.1118 27.1048V18.77C24.1118 18.3725 23.7896 18.0503 23.3921 18.0503C22.9946 18.0503 22.6724 18.3725 22.6724 18.77V27.1048C22.6724 27.5023 22.9946 27.8246 23.3921 27.8246Z" fill="#4686FF"/>
<path d="M15.9624 27.8246C16.3599 27.8246 16.6822 27.5023 16.6822 27.1048V18.77C16.6822 18.3725 16.3599 18.0503 15.9624 18.0503C15.5649 18.0503 15.2427 18.3725 15.2427 18.77V27.1048C15.2427 27.5023 15.5649 27.8246 15.9624 27.8246Z" fill="#4686FF"/>
</svg>
