<svg width="39" height="39" viewBox="0 0 39 39" fill="none" xmlns="http://www.w3.org/2000/svg">
<circle cx="19.5" cy="19.5" r="19.5" fill="white"/>
<path d="M19.9999 29.75C19.8574 29.7508 19.716 29.7235 19.584 29.6696C19.4521 29.6157 19.332 29.5363 19.2308 29.4359L10.8133 21.0075C9.75742 19.9406 9.16516 18.5002 9.16516 16.9992C9.16516 15.4982 9.75742 14.0577 10.8133 12.9909C11.8774 11.9297 13.3188 11.3339 14.8216 11.3339C16.3244 11.3339 17.7658 11.9297 18.8299 12.9909L19.9999 14.1609L21.1699 12.9909C22.2341 11.9297 23.6755 11.3339 25.1783 11.3339C26.681 11.3339 28.1225 11.9297 29.1866 12.9909C30.2425 14.0577 30.8347 15.4982 30.8347 16.9992C30.8347 18.5002 30.2425 19.9406 29.1866 21.0075L20.7691 29.4359C20.6679 29.5363 20.5478 29.6157 20.4158 29.6696C20.2839 29.7235 20.1425 29.7508 19.9999 29.75ZM14.8216 13.5C14.363 13.4979 13.9086 13.5869 13.4846 13.7617C13.0606 13.9365 12.6755 14.1937 12.3516 14.5184C11.6973 15.1761 11.3301 16.0661 11.3301 16.9938C11.3301 17.9215 11.6973 18.8115 12.3516 19.4692L19.9999 27.1284L27.6483 19.4692C28.3025 18.8115 28.6698 17.9215 28.6698 16.9938C28.6698 16.0661 28.3025 15.1761 27.6483 14.5184C26.9806 13.8875 26.0968 13.5361 25.1783 13.5361C24.2597 13.5361 23.376 13.8875 22.7083 14.5184L20.7691 16.4684C20.6684 16.5699 20.5486 16.6505 20.4166 16.7055C20.2846 16.7605 20.143 16.7888 19.9999 16.7888C19.8569 16.7888 19.7153 16.7605 19.5833 16.7055C19.4513 16.6505 19.3315 16.5699 19.2308 16.4684L17.2916 14.5184C16.9677 14.1937 16.5826 13.9365 16.1587 13.7617C15.7347 13.5869 15.2802 13.4979 14.8216 13.5V13.5Z" fill="#4686FF"/>
</svg>
