<svg width="39" height="39" viewBox="0 0 39 39" fill="none" xmlns="http://www.w3.org/2000/svg">
<circle cx="19.5" cy="19.5" r="19.5" fill="white"/>
<path d="M29.434 17.134C29.4333 17.1335 29.4329 17.1329 29.4324 17.1324L20.866 8.56637C20.5009 8.20107 20.0154 8 19.4991 8C18.9827 8 18.4972 8.20107 18.1319 8.56637L9.57007 17.1281C9.56719 17.1309 9.56415 17.134 9.56142 17.1369C8.81161 17.891 8.81289 19.1146 9.56511 19.8668C9.90877 20.2106 10.3625 20.4096 10.8478 20.4306C10.8677 20.4325 10.8875 20.4335 10.9076 20.4335H11.2488V26.7374C11.2488 27.985 12.264 29 13.5116 29H16.863C17.2028 29 17.4782 28.7244 17.4782 28.3848V23.4424C17.4782 22.8731 17.9414 22.4101 18.5107 22.4101H20.4874C21.0567 22.4101 21.5197 22.8731 21.5197 23.4424V28.3848C21.5197 28.7244 21.7951 29 22.135 29H25.4864C26.7342 29 27.7491 27.985 27.7491 26.7374V20.4335H28.0657C28.5819 20.4335 29.0674 20.2324 29.4329 19.867C30.1859 19.1136 30.1862 17.8878 29.434 17.134V17.134ZM28.5627 18.997C28.4299 19.1298 28.2533 19.203 28.0657 19.203H27.1339C26.7941 19.203 26.5187 19.4785 26.5187 19.8183V26.7374C26.5187 27.3065 26.0556 27.7695 25.4864 27.7695H22.7502V23.4424C22.7502 22.1948 21.7352 21.1796 20.4874 21.1796H18.5107C17.2629 21.1796 16.2478 22.1948 16.2478 23.4424V27.7695H13.5116C12.9425 27.7695 12.4793 27.3065 12.4793 26.7374V19.8183C12.4793 19.4785 12.2039 19.203 11.8641 19.203H10.9483C10.9387 19.2024 10.9292 19.2019 10.9194 19.2018C10.7361 19.1986 10.5642 19.1258 10.4354 18.9968C10.1614 18.7229 10.1614 18.277 10.4354 18.0028C10.4356 18.0028 10.4356 18.0027 10.4357 18.0025L10.4362 18.002L19.0022 9.43635C19.1349 9.30353 19.3113 9.23047 19.4991 9.23047C19.6867 9.23047 19.8631 9.30353 19.9959 9.43635L28.56 18.0003C28.5613 18.0016 28.5627 18.0028 28.564 18.0041C28.8365 18.2786 28.836 18.7235 28.5627 18.997V18.997Z" fill="#4686FF" stroke="#4686FF" stroke-width="0.4"/>
</svg>
