<svg width="39" height="39" viewBox="0 0 39 39" fill="none" xmlns="http://www.w3.org/2000/svg">
<circle cx="19.5" cy="19.5" r="19.5" fill="white"/>
<path d="M27.2083 12.2C27.2083 13.9673 25.7906 15.4 24.0417 15.4C22.2928 15.4 20.875 13.9673 20.875 12.2C20.875 10.4327 22.2928 9 24.0417 9C25.7906 9 27.2083 10.4327 27.2083 12.2Z" fill="#4686FF"/>
<path d="M15.3333 19.4C15.3333 21.1673 13.9156 22.6 12.1667 22.6C10.4178 22.6 9 21.1673 9 19.4C9 17.6327 10.4178 16.2 12.1667 16.2C13.9156 16.2 15.3333 17.6327 15.3333 19.4Z" fill="#4686FF"/>
<path d="M28 25.8C28 27.5673 26.5822 29 24.8333 29C23.0844 29 21.6667 27.5673 21.6667 25.8C21.6667 24.0327 23.0844 22.6 24.8333 22.6C26.5822 22.6 28 24.0327 28 25.8Z" fill="#4686FF"/>
<path d="M12.1667 18.902L25.4041 10.5998L26.239 11.9593L13.0016 20.2614L12.1667 18.902Z" fill="#4686FF"/>
<path d="M12.9181 18.6L25.3834 25.3916L24.632 26.7999L12.1667 20.0083L12.9181 18.6Z" fill="#4686FF"/>
</svg>
